# Blender 4.1.0
# www.blender.org
mtllib roommodel2.mtl
o floor
v -6.000000 0.000000 3.000000
v 6.000000 0.000000 3.000000
v -6.000000 0.000000 -3.000000
v 6.000000 0.000000 -3.000000
vn -0.0000 1.0000 -0.0000
vt 0.000000 0.000000
vt 1.000000 0.000000
vt 1.000000 1.000000
vt 0.000000 1.000000
s 0
f 1/1/1 2/2/1 4/3/1 3/4/1
o firstWall
v 6.000000 4.000000 3.000000
v 6.000000 0.000000 3.000000
v 6.000000 4.000000 -3.000000
v 6.000000 0.000000 -3.000000
v 6.000000 4.000000 -3.000000
v 6.000000 0.000000 -3.000000
v 6.000000 4.000000 -3.000000
v 6.000000 0.000000 -3.000000
vn 1.0000 -0.0000 -0.0000
vt 0.000000 0.000000
vt 1.000000 0.000000
vt 1.000000 1.000000
vt 0.000000 1.000000
s 0
f 5/5/2 6/6/2 8/7/2 7/8/2
f 7/8/2 8/7/2 10/7/2 9/8/2
f 9/8/2 10/7/2 12/7/2 11/8/2
o secondWall
v -6.000000 0.000000 -3.000000
v 6.000000 0.000000 -3.000000
v -6.000000 4.000000 -3.000000
v 6.000000 4.000000 -3.000000
vn -0.0000 -0.0000 1.0000
vt 0.000000 0.000000
vt 1.000000 0.000000
vt 1.000000 1.000000
vt 0.000000 1.000000
s 0
f 13/9/3 14/10/3 16/11/3 15/12/3
o Plane.003
v -6.000000 0.000000 3.000000
v 6.000000 0.000000 3.000000
v -6.000000 4.000000 3.000000
v 6.000000 4.000000 3.000000
vn -0.0000 -0.0000 1.0000
vt 0.000000 0.000000
vt 1.000000 0.000000
vt 1.000000 1.000000
vt 0.000000 1.000000
s 0
usemtl Material.001
f 17/13/4 18/14/4 20/15/4 19/16/4
o Plane.004
v -6.000000 4.000000 -3.000000
v -6.000000 0.000000 -3.000000
v -6.000000 4.000000 3.000000
v -6.000000 0.000000 3.000000
v -6.000000 4.000000 3.000000
v -6.000000 0.000000 3.000000
v -6.000000 4.000000 3.000000
v -6.000000 0.000000 3.000000
vn -1.0000 -0.0000 -0.0000
vt 0.000000 0.000000
vt 1.000000 0.000000
vt 1.000000 1.000000
vt 0.000000 1.000000
s 0
f 21/17/5 22/18/5 24/19/5 23/20/5
f 23/20/5 24/19/5 26/19/5 25/20/5
f 25/20/5 26/19/5 28/19/5 27/20/5
o Plane.005
v -6.000000 4.000000 -3.000000
v 6.000000 4.000000 -3.000000
v -6.000000 4.000000 3.000000
v 6.000000 4.000000 3.000000
vn -0.0000 -1.0000 -0.0000
vt 0.000000 0.000000
vt 1.000000 0.000000
vt 1.000000 1.000000
vt 0.000000 1.000000
s 0
f 29/21/6 30/22/6 32/23/6 31/24/6
